<svg width="32" height="32" viewBox="0 0 32 32" fill="none" xmlns="http://www.w3.org/2000/svg">
<path d="M24.4 25H7.6C7.27 25 7 24.7314 7 24.4031C7 24.0747 7.27 23.8061 7.6 23.8061H24.4C24.73 23.8061 25 24.0747 25 24.4031C25 24.7314 24.73 25 24.4 25Z" fill="#757B8A"/>
<path d="M13.9403 9.82274L13.0918 10.6669L18.4305 15.9783L19.279 15.1341L13.9403 9.82274Z" fill="#757B8A"/>
<path d="M7.6003 22C7.27014 22 7 21.7299 7 21.3997V16.1271C7 15.967 7.06003 15.8169 7.18009 15.7069L15.7044 7.17259C15.9345 6.94247 16.3147 6.94247 16.5548 7.17259L21.8274 12.4452C22.0575 12.6753 22.0575 13.0555 21.8274 13.2956L13.3032 21.8199C13.1931 21.93 13.033 22 12.8829 22H7.6003ZM8.2006 20.7994H12.6228L20.5568 12.8654L16.1346 8.44322L8.2006 16.3772V20.7994Z" fill="#757B8A"/>
</svg>
