<svg width="32" height="32" viewBox="0 0 32 32" fill="none" xmlns="http://www.w3.org/2000/svg">
<path d="M24.4 10H7.6C7.27 10 7 10.27 7 10.6C7 10.93 7.27 11.2 7.6 11.2H10V24.4C10 24.73 10.27 25 10.6 25H21.4C21.73 25 22 24.73 22 24.4V11.2H24.4C24.73 11.2 25 10.93 25 10.6C25 10.27 24.73 10 24.4 10ZM20.8 23.8H11.2V11.2H20.8V23.8Z" fill="#757B8A"/>
<path d="M13.0004 8.2H19.0004C19.3304 8.2 19.6004 7.93 19.6004 7.6C19.6004 7.27 19.3304 7 19.0004 7H13.0004C12.6704 7 12.4004 7.27 12.4004 7.6C12.4004 7.93 12.6704 8.2 13.0004 8.2Z" fill="#757B8A"/>
</svg>
