<svg width="20" height="20" viewBox="0 0 20 20" fill="none" xmlns="http://www.w3.org/2000/svg">
<g clip-path="url(#clip0_213_1236)">
<path d="M15.6569 14.5962L11.0607 9.99999L15.6569 5.40379C15.9468 5.11388 15.9468 4.63305 15.6569 4.34313C15.3669 4.05322 14.8861 4.05322 14.5962 4.34313L10 8.93933L5.40381 4.34313C5.11389 4.05322 4.63306 4.05322 4.34315 4.34313C4.05323 4.63305 4.05323 5.11388 4.34315 5.40379L8.93934 9.99999L4.34315 14.5962C4.05323 14.8861 4.05323 15.3669 4.34315 15.6568C4.63306 15.9468 5.11389 15.9468 5.40381 15.6568L10 11.0606L14.5962 15.6568C14.8861 15.9468 15.3669 15.9468 15.6569 15.6568C15.9468 15.3669 15.9468 14.8861 15.6569 14.5962Z" fill="#969BA6"/>
</g>
<defs>
<clipPath id="clip0_213_1236">
<rect width="20" height="20" fill="white"/>
</clipPath>
</defs>
</svg>
