<svg width="20" height="20" viewBox="0 0 20 20" fill="none" xmlns="http://www.w3.org/2000/svg">
<rect width="20" height="20" rx="4" fill="#1A1B1E"/>
<path d="M13.2652 12.653L10.6122 9.99998L13.2652 7.34696C13.4326 7.17962 13.4326 6.90207 13.2652 6.73473C13.0979 6.56738 12.8204 6.56738 12.653 6.73473L10 9.38774L7.34699 6.73473C7.17964 6.56738 6.9021 6.56738 6.73475 6.73473C6.56741 6.90207 6.56741 7.17962 6.73475 7.34696L9.38777 9.99998L6.73475 12.653C6.56741 12.8203 6.56741 13.0979 6.73475 13.2652C6.9021 13.4326 7.17964 13.4326 7.34699 13.2652L10 10.6122L12.653 13.2652C12.8204 13.4326 13.0979 13.4326 13.2652 13.2652C13.4326 13.0979 13.4326 12.8203 13.2652 12.653Z" fill="#969BA6"/>
</svg>
