<svg width="259" height="80" viewBox="0 0 259 80" fill="none" xmlns="http://www.w3.org/2000/svg">
<path d="M37.688 46.126C36.764 46.126 35.936 45.976 35.204 45.676C34.472 45.376 33.884 44.932 33.44 44.344C33.008 43.756 32.78 43.048 32.756 42.22H36.032C36.08 42.688 36.242 43.048 36.518 43.3C36.794 43.54 37.154 43.66 37.598 43.66C38.054 43.66 38.414 43.558 38.678 43.354C38.942 43.138 39.074 42.844 39.074 42.472C39.074 42.16 38.966 41.902 38.75 41.698C38.546 41.494 38.288 41.326 37.976 41.194C37.676 41.062 37.244 40.912 36.68 40.744C35.864 40.492 35.198 40.24 34.682 39.988C34.166 39.736 33.722 39.364 33.35 38.872C32.978 38.38 32.792 37.738 32.792 36.946C32.792 35.77 33.218 34.852 34.07 34.192C34.922 33.52 36.032 33.184 37.4 33.184C38.792 33.184 39.914 33.52 40.766 34.192C41.618 34.852 42.074 35.776 42.134 36.964H38.804C38.78 36.556 38.63 36.238 38.354 36.01C38.078 35.77 37.724 35.65 37.292 35.65C36.92 35.65 36.62 35.752 36.392 35.956C36.164 36.148 36.05 36.43 36.05 36.802C36.05 37.21 36.242 37.528 36.626 37.756C37.01 37.984 37.61 38.23 38.426 38.494C39.242 38.77 39.902 39.034 40.406 39.286C40.922 39.538 41.366 39.904 41.738 40.384C42.11 40.864 42.296 41.482 42.296 42.238C42.296 42.958 42.11 43.612 41.738 44.2C41.378 44.788 40.85 45.256 40.154 45.604C39.458 45.952 38.636 46.126 37.688 46.126ZM55.4942 46H52.4162L47.2682 38.206V46H44.1902V33.364H47.2682L52.4162 41.194V33.364H55.4942V46ZM65.5914 43.768H60.8754L60.1194 46H56.8974L61.4694 33.364H65.0334L69.6054 46H66.3474L65.5914 43.768ZM64.7994 41.392L63.2334 36.766L61.6854 41.392H64.7994ZM80.6269 37.432C80.6269 38.164 80.4589 38.836 80.1229 39.448C79.7869 40.048 79.2709 40.534 78.5749 40.906C77.8789 41.278 77.0149 41.464 75.9829 41.464H74.0749V46H70.9969V33.364H75.9829C76.9909 33.364 77.8429 33.538 78.5389 33.886C79.2349 34.234 79.7569 34.714 80.1049 35.326C80.4529 35.938 80.6269 36.64 80.6269 37.432ZM75.7489 39.016C76.3369 39.016 76.7749 38.878 77.0629 38.602C77.3509 38.326 77.4949 37.936 77.4949 37.432C77.4949 36.928 77.3509 36.538 77.0629 36.262C76.7749 35.986 76.3369 35.848 75.7489 35.848H74.0749V39.016H75.7489ZM91.3193 33.364V35.83H87.9713V46H84.8933V35.83H81.5453V33.364H91.3193ZM100.73 43.768H96.014L95.258 46H92.036L96.608 33.364H100.172L104.744 46H101.486L100.73 43.768ZM99.938 41.392L98.372 36.766L96.824 41.392H99.938ZM114.524 37.36C114.296 36.94 113.966 36.622 113.534 36.406C113.114 36.178 112.616 36.064 112.04 36.064C111.044 36.064 110.246 36.394 109.646 37.054C109.046 37.702 108.746 38.572 108.746 39.664C108.746 40.828 109.058 41.74 109.682 42.4C110.318 43.048 111.188 43.372 112.292 43.372C113.048 43.372 113.684 43.18 114.2 42.796C114.728 42.412 115.112 41.86 115.352 41.14H111.446V38.872H118.142V41.734C117.914 42.502 117.524 43.216 116.972 43.876C116.432 44.536 115.742 45.07 114.902 45.478C114.062 45.886 113.114 46.09 112.058 46.09C110.81 46.09 109.694 45.82 108.71 45.28C107.738 44.728 106.976 43.966 106.424 42.994C105.884 42.022 105.614 40.912 105.614 39.664C105.614 38.416 105.884 37.306 106.424 36.334C106.976 35.35 107.738 34.588 108.71 34.048C109.682 33.496 110.792 33.22 112.04 33.22C113.552 33.22 114.824 33.586 115.856 34.318C116.9 35.05 117.59 36.064 117.926 37.36H114.524Z" fill="#EEEEEE"/>
<path d="M131.525 33.418C132.917 33.418 134.111 33.67 135.107 34.174C136.103 34.678 136.865 35.404 137.393 36.352C137.921 37.3 138.185 38.428 138.185 39.736C138.185 41.032 137.921 42.154 137.393 43.102C136.865 44.038 136.103 44.758 135.107 45.262C134.111 45.754 132.917 46 131.525 46H127.799V33.418H131.525ZM131.525 44.956C133.277 44.956 134.609 44.5 135.521 43.588C136.445 42.664 136.907 41.38 136.907 39.736C136.907 38.08 136.445 36.79 135.521 35.866C134.609 34.93 133.277 34.462 131.525 34.462H129.059V44.956H131.525ZM149.4 40.582C149.4 41.014 149.388 41.344 149.364 41.572H141.21C141.246 42.316 141.426 42.952 141.75 43.48C142.074 44.008 142.5 44.41 143.028 44.686C143.556 44.95 144.132 45.082 144.756 45.082C145.572 45.082 146.256 44.884 146.808 44.488C147.372 44.092 147.744 43.558 147.924 42.886H149.256C149.016 43.846 148.5 44.632 147.708 45.244C146.928 45.844 145.944 46.144 144.756 46.144C143.832 46.144 143.004 45.94 142.272 45.532C141.54 45.112 140.964 44.524 140.544 43.768C140.136 43 139.932 42.106 139.932 41.086C139.932 40.066 140.136 39.172 140.544 38.404C140.952 37.636 141.522 37.048 142.254 36.64C142.986 36.232 143.82 36.028 144.756 36.028C145.692 36.028 146.508 36.232 147.204 36.64C147.912 37.048 148.452 37.6 148.824 38.296C149.208 38.98 149.4 39.742 149.4 40.582ZM148.122 40.546C148.134 39.814 147.984 39.19 147.672 38.674C147.372 38.158 146.958 37.768 146.43 37.504C145.902 37.24 145.326 37.108 144.702 37.108C143.766 37.108 142.968 37.408 142.308 38.008C141.648 38.608 141.282 39.454 141.21 40.546H148.122ZM155.198 44.776L158.51 36.172H159.842L155.9 46H154.478L150.536 36.172H151.886L155.198 44.776ZM170.441 40.582C170.441 41.014 170.429 41.344 170.405 41.572H162.251C162.287 42.316 162.467 42.952 162.791 43.48C163.115 44.008 163.541 44.41 164.069 44.686C164.597 44.95 165.173 45.082 165.797 45.082C166.613 45.082 167.297 44.884 167.849 44.488C168.413 44.092 168.785 43.558 168.965 42.886H170.297C170.057 43.846 169.541 44.632 168.749 45.244C167.969 45.844 166.985 46.144 165.797 46.144C164.873 46.144 164.045 45.94 163.313 45.532C162.581 45.112 162.005 44.524 161.585 43.768C161.177 43 160.973 42.106 160.973 41.086C160.973 40.066 161.177 39.172 161.585 38.404C161.993 37.636 162.563 37.048 163.295 36.64C164.027 36.232 164.861 36.028 165.797 36.028C166.733 36.028 167.549 36.232 168.245 36.64C168.953 37.048 169.493 37.6 169.865 38.296C170.249 38.98 170.441 39.742 170.441 40.582ZM169.163 40.546C169.175 39.814 169.025 39.19 168.713 38.674C168.413 38.158 167.999 37.768 167.471 37.504C166.943 37.24 166.367 37.108 165.743 37.108C164.807 37.108 164.009 37.408 163.349 38.008C162.689 38.608 162.323 39.454 162.251 40.546H169.163ZM174.007 32.68V46H172.747V32.68H174.007ZM181.162 46.144C180.238 46.144 179.404 45.94 178.66 45.532C177.928 45.112 177.346 44.524 176.914 43.768C176.494 43 176.284 42.106 176.284 41.086C176.284 40.066 176.5 39.178 176.932 38.422C177.364 37.654 177.952 37.066 178.696 36.658C179.44 36.238 180.274 36.028 181.198 36.028C182.122 36.028 182.956 36.238 183.7 36.658C184.456 37.066 185.044 37.654 185.464 38.422C185.896 39.178 186.112 40.066 186.112 41.086C186.112 42.094 185.896 42.982 185.464 43.75C185.032 44.518 184.438 45.112 183.682 45.532C182.926 45.94 182.086 46.144 181.162 46.144ZM181.162 45.046C181.81 45.046 182.41 44.902 182.962 44.614C183.514 44.314 183.958 43.87 184.294 43.282C184.642 42.682 184.816 41.95 184.816 41.086C184.816 40.222 184.648 39.496 184.312 38.908C183.976 38.308 183.532 37.864 182.98 37.576C182.428 37.276 181.828 37.126 181.18 37.126C180.532 37.126 179.932 37.276 179.38 37.576C178.828 37.864 178.384 38.308 178.048 38.908C177.724 39.496 177.562 40.222 177.562 41.086C177.562 41.95 177.724 42.682 178.048 43.282C178.384 43.87 178.822 44.314 179.362 44.614C179.914 44.902 180.514 45.046 181.162 45.046ZM189.651 38.332C189.963 37.672 190.455 37.126 191.127 36.694C191.811 36.25 192.621 36.028 193.557 36.028C194.445 36.028 195.243 36.238 195.951 36.658C196.671 37.066 197.229 37.654 197.625 38.422C198.033 39.178 198.237 40.06 198.237 41.068C198.237 42.076 198.033 42.964 197.625 43.732C197.229 44.5 196.671 45.094 195.951 45.514C195.243 45.934 194.445 46.144 193.557 46.144C192.633 46.144 191.829 45.928 191.145 45.496C190.461 45.052 189.963 44.5 189.651 43.84V50.644H188.409V36.172H189.651V38.332ZM196.959 41.068C196.959 40.252 196.797 39.55 196.473 38.962C196.161 38.362 195.729 37.906 195.177 37.594C194.625 37.282 194.001 37.126 193.305 37.126C192.633 37.126 192.015 37.288 191.451 37.612C190.899 37.936 190.461 38.398 190.137 38.998C189.813 39.598 189.651 40.294 189.651 41.086C189.651 41.878 189.813 42.574 190.137 43.174C190.461 43.774 190.899 44.236 191.451 44.56C192.015 44.884 192.633 45.046 193.305 45.046C194.001 45.046 194.625 44.89 195.177 44.578C195.729 44.254 196.161 43.792 196.473 43.192C196.797 42.58 196.959 41.872 196.959 41.068ZM209.447 40.582C209.447 41.014 209.435 41.344 209.411 41.572H201.257C201.293 42.316 201.473 42.952 201.797 43.48C202.121 44.008 202.547 44.41 203.075 44.686C203.603 44.95 204.179 45.082 204.803 45.082C205.619 45.082 206.303 44.884 206.855 44.488C207.419 44.092 207.791 43.558 207.971 42.886H209.303C209.063 43.846 208.547 44.632 207.755 45.244C206.975 45.844 205.991 46.144 204.803 46.144C203.879 46.144 203.051 45.94 202.319 45.532C201.587 45.112 201.011 44.524 200.591 43.768C200.183 43 199.979 42.106 199.979 41.086C199.979 40.066 200.183 39.172 200.591 38.404C200.999 37.636 201.569 37.048 202.301 36.64C203.033 36.232 203.867 36.028 204.803 36.028C205.739 36.028 206.555 36.232 207.251 36.64C207.959 37.048 208.499 37.6 208.871 38.296C209.255 38.98 209.447 39.742 209.447 40.582ZM208.169 40.546C208.181 39.814 208.031 39.19 207.719 38.674C207.419 38.158 207.005 37.768 206.477 37.504C205.949 37.24 205.373 37.108 204.749 37.108C203.813 37.108 203.015 37.408 202.355 38.008C201.695 38.608 201.329 39.454 201.257 40.546H208.169ZM213.013 37.918C213.289 37.306 213.709 36.832 214.273 36.496C214.849 36.16 215.551 35.992 216.379 35.992V37.306H216.037C215.125 37.306 214.393 37.552 213.841 38.044C213.289 38.536 213.013 39.358 213.013 40.51V46H211.753V36.172H213.013V37.918ZM221.658 46.144C220.53 46.144 219.606 45.886 218.886 45.37C218.178 44.842 217.782 44.128 217.698 43.228H218.994C219.054 43.78 219.312 44.23 219.768 44.578C220.236 44.914 220.86 45.082 221.64 45.082C222.324 45.082 222.858 44.92 223.242 44.596C223.638 44.272 223.836 43.87 223.836 43.39C223.836 43.054 223.728 42.778 223.512 42.562C223.296 42.346 223.02 42.178 222.684 42.058C222.36 41.926 221.916 41.788 221.352 41.644C220.62 41.452 220.026 41.26 219.57 41.068C219.114 40.876 218.724 40.594 218.4 40.222C218.088 39.838 217.932 39.328 217.932 38.692C217.932 38.212 218.076 37.768 218.364 37.36C218.652 36.952 219.06 36.628 219.588 36.388C220.116 36.148 220.716 36.028 221.388 36.028C222.444 36.028 223.296 36.298 223.944 36.838C224.592 37.366 224.94 38.098 224.988 39.034H223.728C223.692 38.458 223.464 37.996 223.044 37.648C222.636 37.288 222.072 37.108 221.352 37.108C220.716 37.108 220.2 37.258 219.804 37.558C219.408 37.858 219.21 38.23 219.21 38.674C219.21 39.058 219.324 39.376 219.552 39.628C219.792 39.868 220.086 40.06 220.434 40.204C220.782 40.336 221.25 40.486 221.838 40.654C222.546 40.846 223.11 41.032 223.53 41.212C223.95 41.392 224.31 41.656 224.61 42.004C224.91 42.352 225.066 42.814 225.078 43.39C225.078 43.918 224.934 44.392 224.646 44.812C224.358 45.22 223.956 45.544 223.44 45.784C222.924 46.024 222.33 46.144 221.658 46.144Z" fill="#EEEEEE" fill-opacity="0.7"/>
</svg>
