<svg width="44" height="44" viewBox="0 0 44 44" fill="none" xmlns="http://www.w3.org/2000/svg">
<path d="M24 14C24 15.1046 23.1046 16 22 16C20.8954 16 20 15.1046 20 14C20 12.8954 20.8954 12 22 12C23.1046 12 24 12.8954 24 14Z" fill="#E3E5E8"/>
<path d="M24 22C24 23.1046 23.1046 24 22 24C20.8954 24 20 23.1046 20 22C20 20.8954 20.8954 20 22 20C23.1046 20 24 20.8954 24 22Z" fill="#E3E5E8"/>
<path d="M24 30C24 31.1046 23.1046 32 22 32C20.8954 32 20 31.1046 20 30C20 28.8954 20.8954 28 22 28C23.1046 28 24 28.8954 24 30Z" fill="#E3E5E8"/>
</svg>
