<svg width="28" height="28" viewBox="0 0 28 28" fill="none" xmlns="http://www.w3.org/2000/svg">
<circle cx="14" cy="14" r="14" fill="#3D6AFF"/>
<path d="M18.0084 21L15.6624 18.675C15.0886 18.8311 14.5035 18.9092 13.9072 18.9092C12.8158 18.9092 11.82 18.6583 10.9198 18.1565C10.0197 17.6436 9.3052 16.9355 8.77637 16.0323C8.25879 15.1179 8 14.092 8 12.9546C8 11.8172 8.25879 10.7969 8.77637 9.89367C9.3052 8.97929 10.0197 8.27121 10.9198 7.76941C11.82 7.25647 12.8158 7 13.9072 7C15.0098 7 16.0113 7.25647 16.9114 7.76941C17.8115 8.27121 18.5204 8.97372 19.038 9.87694C19.5556 10.7802 19.8143 11.8061 19.8143 12.9546C19.8143 14.0697 19.5668 15.0733 19.0717 15.9654C18.5767 16.8574 17.8959 17.5599 17.0295 18.0729L20 21H18.0084ZM9.56962 12.9546C9.56962 13.8801 9.75527 14.6941 10.1266 15.3967C10.5091 16.0992 11.0267 16.64 11.6793 17.0191C12.3432 17.3982 13.0858 17.5878 13.9072 17.5878C14.7286 17.5878 15.4655 17.3982 16.1181 17.0191C16.782 16.64 17.2996 16.0992 17.6709 15.3967C18.0534 14.6941 18.2447 13.8801 18.2447 12.9546C18.2447 12.0179 18.0534 11.2039 17.6709 10.5125C17.2996 9.81004 16.7876 9.26922 16.135 8.89008C15.4824 8.51095 14.7398 8.32139 13.9072 8.32139C13.0745 8.32139 12.3319 8.51095 11.6793 8.89008C11.0267 9.26922 10.5091 9.81004 10.1266 10.5125C9.75527 11.2039 9.56962 12.0179 9.56962 12.9546Z" fill="white"/>
</svg>
