<svg width="48" height="48" viewBox="0 0 48 48" fill="none" xmlns="http://www.w3.org/2000/svg">
<rect width="48" height="48" rx="8" fill="#2F3137"/>
<path d="M33.35 21.1487L24.35 12.1487C24.35 12.1487 24.25 12.0687 24.19 12.0387C24.07 11.9887 23.93 11.9887 23.81 12.0387C23.75 12.0687 23.69 12.0987 23.65 12.1487L14.65 21.1487C14.45 21.3487 14.45 21.6587 14.65 21.8587C14.85 22.0587 15.16 22.0587 15.36 21.8587L23.5 13.7087V35.4987C23.5 35.7787 23.72 35.9987 24 35.9987C24.28 35.9987 24.5 35.7787 24.5 35.4987V13.7087L32.65 21.8587C32.75 21.9587 32.88 22.0087 33 22.0087C33.12 22.0087 33.26 21.9587 33.35 21.8587C33.55 21.6587 33.55 21.3487 33.35 21.1487V21.1487Z" fill="white"/>
</svg>
